# xmcd
#
# Track frame offsets:
#	150
#	26308
#	47679
#	67392
#	87639
#	116366
#	141025
#	164265
#	189086
#	207694
#	230231
#
# Disc length: 3388 seconds
#
# Revision: 1
# Processed by: cddbd v1.5.2PL0 Copyright (c) Steve Scherf et al.
# Submitted via: EasyCDDAExtractor 16.0.4.1
#
DISCID=9e0d3a0b
DTITLE=Quốc Đại - Điệu Buồn Trên Sông
DYEAR=2012
DGENRE=Pop
TTITLE0=Quốc Đại - Điệu Buồn Trên Sông
TTITLE1=Quốc Đại - Lỡ Mối Duyên Quê
TTITLE2=Quốc Đại - Yêu Em Gái Miền Tây
TTITLE3=Quốc Đại - Cung Điệu Ngày Xưa
TTITLE4=Quốc Đại - LK Đêm Buồn Phố Thị, Thói Đời
TTITLE5=Quốc Đại - Thương Mẹ
TTITLE6=Cẩm Ly, Quốc Đại - Mấy Nhịp Cầu Tre
TTITLE7=Quốc Đại - Cô Sáu Bạc Liêu
TTITLE8=Quốc Đại - Thứ Bảy Chiều Nay
TTITLE9=Quốc Đại - Ngõ Xưa Chiều Mưa Buồn
TTITLE10=Quốc Đại - Đám Cưới Trên Đường Quê
EXTD=
EXTT0=
EXTT1=
EXTT2=
EXTT3=
EXTT4=
EXTT5=
EXTT6=
EXTT7=
EXTT8=
EXTT9=
EXTT10=
PLAYORDER=
